<mxfile host="app.diagrams.net" modified="2023-07-07T20:28:38.140Z" agent="Mozilla/5.0 (Windows NT 10.0; Win64; x64) AppleWebKit/537.36 (KHTML, like Gecko) Chrome/114.0.0.0 Safari/537.36" etag="4XvSxd7Z8Vcpx4XR3rGl" version="21.6.1" type="device">
  <diagram id="C5RBs43oDa-KdzZeNtuy" name="Page-1">
    <mxGraphModel dx="1120" dy="427" grid="1" gridSize="10" guides="1" tooltips="1" connect="1" arrows="1" fold="1" page="1" pageScale="1" pageWidth="827" pageHeight="1169" math="0" shadow="0">
      <root>
        <mxCell id="WIyWlLk6GJQsqaUBKTNV-0" />
        <mxCell id="WIyWlLk6GJQsqaUBKTNV-1" parent="WIyWlLk6GJQsqaUBKTNV-0" />
        <mxCell id="WIyWlLk6GJQsqaUBKTNV-2" value="" style="rounded=0;html=1;jettySize=auto;orthogonalLoop=1;fontSize=11;endArrow=block;endFill=0;endSize=8;strokeWidth=1;shadow=0;labelBackgroundColor=none;edgeStyle=orthogonalEdgeStyle;" parent="WIyWlLk6GJQsqaUBKTNV-1" source="WIyWlLk6GJQsqaUBKTNV-3" target="tE5iF9iHkF5uxFzn7pAU-0" edge="1">
          <mxGeometry relative="1" as="geometry">
            <mxPoint x="230" y="270" as="targetPoint" />
          </mxGeometry>
        </mxCell>
        <mxCell id="WIyWlLk6GJQsqaUBKTNV-3" value="Start" style="rounded=1;whiteSpace=wrap;html=1;fontSize=12;glass=0;strokeWidth=1;shadow=0;" parent="WIyWlLk6GJQsqaUBKTNV-1" vertex="1">
          <mxGeometry x="80" y="40" width="120" height="40" as="geometry" />
        </mxCell>
        <mxCell id="tE5iF9iHkF5uxFzn7pAU-5" value="" style="edgeStyle=orthogonalEdgeStyle;rounded=0;orthogonalLoop=1;jettySize=auto;html=1;" edge="1" parent="WIyWlLk6GJQsqaUBKTNV-1" source="tE5iF9iHkF5uxFzn7pAU-0" target="tE5iF9iHkF5uxFzn7pAU-1">
          <mxGeometry relative="1" as="geometry" />
        </mxCell>
        <mxCell id="tE5iF9iHkF5uxFzn7pAU-14" value="" style="edgeStyle=orthogonalEdgeStyle;rounded=0;orthogonalLoop=1;jettySize=auto;html=1;" edge="1" parent="WIyWlLk6GJQsqaUBKTNV-1" source="tE5iF9iHkF5uxFzn7pAU-0" target="tE5iF9iHkF5uxFzn7pAU-13">
          <mxGeometry relative="1" as="geometry" />
        </mxCell>
        <mxCell id="tE5iF9iHkF5uxFzn7pAU-0" value="int size = ConsoleReadLine&lt;br&gt;string[] str = new strig[size]" style="shape=parallelogram;perimeter=parallelogramPerimeter;whiteSpace=wrap;html=1;fixedSize=1;" vertex="1" parent="WIyWlLk6GJQsqaUBKTNV-1">
          <mxGeometry x="45" y="120" width="190" height="50" as="geometry" />
        </mxCell>
        <mxCell id="tE5iF9iHkF5uxFzn7pAU-7" value="" style="edgeStyle=orthogonalEdgeStyle;rounded=0;orthogonalLoop=1;jettySize=auto;html=1;" edge="1" parent="WIyWlLk6GJQsqaUBKTNV-1" source="tE5iF9iHkF5uxFzn7pAU-1" target="tE5iF9iHkF5uxFzn7pAU-6">
          <mxGeometry relative="1" as="geometry" />
        </mxCell>
        <mxCell id="tE5iF9iHkF5uxFzn7pAU-1" value="i&amp;nbsp; = 0; i &amp;lt;&amp;nbsp;size; i++" style="shape=hexagon;perimeter=hexagonPerimeter2;whiteSpace=wrap;html=1;fixedSize=1;" vertex="1" parent="WIyWlLk6GJQsqaUBKTNV-1">
          <mxGeometry x="45" y="190" width="180" height="30" as="geometry" />
        </mxCell>
        <mxCell id="tE5iF9iHkF5uxFzn7pAU-10" value="" style="edgeStyle=orthogonalEdgeStyle;rounded=0;orthogonalLoop=1;jettySize=auto;html=1;" edge="1" parent="WIyWlLk6GJQsqaUBKTNV-1" source="tE5iF9iHkF5uxFzn7pAU-6" target="tE5iF9iHkF5uxFzn7pAU-8">
          <mxGeometry relative="1" as="geometry">
            <Array as="points">
              <mxPoint x="140" y="340" />
              <mxPoint x="140" y="340" />
            </Array>
          </mxGeometry>
        </mxCell>
        <mxCell id="tE5iF9iHkF5uxFzn7pAU-12" style="edgeStyle=orthogonalEdgeStyle;rounded=0;orthogonalLoop=1;jettySize=auto;html=1;entryX=0;entryY=0.5;entryDx=0;entryDy=0;" edge="1" parent="WIyWlLk6GJQsqaUBKTNV-1" target="tE5iF9iHkF5uxFzn7pAU-1">
          <mxGeometry relative="1" as="geometry">
            <mxPoint x="180" y="285" as="sourcePoint" />
            <mxPoint x="90" y="220" as="targetPoint" />
            <Array as="points">
              <mxPoint x="40" y="285" />
              <mxPoint x="40" y="225" />
              <mxPoint x="45" y="225" />
            </Array>
          </mxGeometry>
        </mxCell>
        <mxCell id="tE5iF9iHkF5uxFzn7pAU-6" value="str[i] = Console.ReadLine" style="rounded=0;whiteSpace=wrap;html=1;" vertex="1" parent="WIyWlLk6GJQsqaUBKTNV-1">
          <mxGeometry x="55" y="265" width="170" height="40" as="geometry" />
        </mxCell>
        <mxCell id="tE5iF9iHkF5uxFzn7pAU-9" style="edgeStyle=orthogonalEdgeStyle;rounded=0;orthogonalLoop=1;jettySize=auto;html=1;" edge="1" parent="WIyWlLk6GJQsqaUBKTNV-1">
          <mxGeometry relative="1" as="geometry">
            <mxPoint x="60" y="140" as="targetPoint" />
            <mxPoint x="100" y="345" as="sourcePoint" />
            <Array as="points">
              <mxPoint x="20" y="345" />
              <mxPoint x="20" y="140" />
            </Array>
          </mxGeometry>
        </mxCell>
        <mxCell id="tE5iF9iHkF5uxFzn7pAU-8" value="return str" style="shape=parallelogram;perimeter=parallelogramPerimeter;whiteSpace=wrap;html=1;fixedSize=1;" vertex="1" parent="WIyWlLk6GJQsqaUBKTNV-1">
          <mxGeometry x="60" y="327.5" width="150" height="30" as="geometry" />
        </mxCell>
        <mxCell id="tE5iF9iHkF5uxFzn7pAU-21" value="" style="edgeStyle=orthogonalEdgeStyle;rounded=0;orthogonalLoop=1;jettySize=auto;html=1;" edge="1" parent="WIyWlLk6GJQsqaUBKTNV-1" source="tE5iF9iHkF5uxFzn7pAU-13" target="tE5iF9iHkF5uxFzn7pAU-15">
          <mxGeometry relative="1" as="geometry" />
        </mxCell>
        <mxCell id="tE5iF9iHkF5uxFzn7pAU-13" value="string[] str&lt;br&gt;string[] second_arr = new string[str.length]&lt;br&gt;count = 0&lt;br&gt;num = 0" style="shape=parallelogram;perimeter=parallelogramPerimeter;whiteSpace=wrap;html=1;fixedSize=1;" vertex="1" parent="WIyWlLk6GJQsqaUBKTNV-1">
          <mxGeometry x="250" y="105" width="250" height="80" as="geometry" />
        </mxCell>
        <mxCell id="tE5iF9iHkF5uxFzn7pAU-18" value="" style="edgeStyle=orthogonalEdgeStyle;rounded=0;orthogonalLoop=1;jettySize=auto;html=1;" edge="1" parent="WIyWlLk6GJQsqaUBKTNV-1" source="tE5iF9iHkF5uxFzn7pAU-15" target="tE5iF9iHkF5uxFzn7pAU-17">
          <mxGeometry relative="1" as="geometry" />
        </mxCell>
        <mxCell id="tE5iF9iHkF5uxFzn7pAU-22" value="" style="edgeStyle=orthogonalEdgeStyle;rounded=0;orthogonalLoop=1;jettySize=auto;html=1;" edge="1" parent="WIyWlLk6GJQsqaUBKTNV-1" source="tE5iF9iHkF5uxFzn7pAU-15" target="tE5iF9iHkF5uxFzn7pAU-16">
          <mxGeometry relative="1" as="geometry">
            <Array as="points">
              <mxPoint x="480" y="230" />
              <mxPoint x="480" y="230" />
            </Array>
          </mxGeometry>
        </mxCell>
        <mxCell id="tE5iF9iHkF5uxFzn7pAU-15" value="num = 1" style="rhombus;whiteSpace=wrap;html=1;" vertex="1" parent="WIyWlLk6GJQsqaUBKTNV-1">
          <mxGeometry x="300" y="208" width="150" height="80" as="geometry" />
        </mxCell>
        <mxCell id="tE5iF9iHkF5uxFzn7pAU-29" value="" style="edgeStyle=orthogonalEdgeStyle;rounded=0;orthogonalLoop=1;jettySize=auto;html=1;" edge="1" parent="WIyWlLk6GJQsqaUBKTNV-1" source="tE5iF9iHkF5uxFzn7pAU-16" target="tE5iF9iHkF5uxFzn7pAU-23">
          <mxGeometry relative="1" as="geometry" />
        </mxCell>
        <mxCell id="tE5iF9iHkF5uxFzn7pAU-34" style="edgeStyle=orthogonalEdgeStyle;rounded=0;orthogonalLoop=1;jettySize=auto;html=1;" edge="1" parent="WIyWlLk6GJQsqaUBKTNV-1" source="tE5iF9iHkF5uxFzn7pAU-16">
          <mxGeometry relative="1" as="geometry">
            <mxPoint x="760" y="210" as="targetPoint" />
            <Array as="points">
              <mxPoint x="575" y="160" />
              <mxPoint x="761" y="160" />
            </Array>
          </mxGeometry>
        </mxCell>
        <mxCell id="tE5iF9iHkF5uxFzn7pAU-16" value="i&amp;nbsp; = 0; i &amp;lt; str.length; i++" style="shape=hexagon;perimeter=hexagonPerimeter2;whiteSpace=wrap;html=1;fixedSize=1;" vertex="1" parent="WIyWlLk6GJQsqaUBKTNV-1">
          <mxGeometry x="500" y="220" width="150" height="50" as="geometry" />
        </mxCell>
        <mxCell id="tE5iF9iHkF5uxFzn7pAU-36" value="" style="edgeStyle=orthogonalEdgeStyle;rounded=0;orthogonalLoop=1;jettySize=auto;html=1;" edge="1" parent="WIyWlLk6GJQsqaUBKTNV-1" source="tE5iF9iHkF5uxFzn7pAU-17" target="tE5iF9iHkF5uxFzn7pAU-35">
          <mxGeometry relative="1" as="geometry" />
        </mxCell>
        <mxCell id="tE5iF9iHkF5uxFzn7pAU-17" value="Вывод конец" style="shape=document;whiteSpace=wrap;html=1;boundedLbl=1;" vertex="1" parent="WIyWlLk6GJQsqaUBKTNV-1">
          <mxGeometry x="315" y="318" width="120" height="55" as="geometry" />
        </mxCell>
        <mxCell id="tE5iF9iHkF5uxFzn7pAU-19" value="Нет" style="text;html=1;align=center;verticalAlign=middle;resizable=0;points=[];autosize=1;strokeColor=none;fillColor=none;" vertex="1" parent="WIyWlLk6GJQsqaUBKTNV-1">
          <mxGeometry x="340" y="288" width="40" height="30" as="geometry" />
        </mxCell>
        <mxCell id="tE5iF9iHkF5uxFzn7pAU-20" value="Да" style="text;html=1;align=center;verticalAlign=middle;resizable=0;points=[];autosize=1;strokeColor=none;fillColor=none;" vertex="1" parent="WIyWlLk6GJQsqaUBKTNV-1">
          <mxGeometry x="450" y="200" width="40" height="30" as="geometry" />
        </mxCell>
        <mxCell id="tE5iF9iHkF5uxFzn7pAU-25" value="" style="edgeStyle=orthogonalEdgeStyle;rounded=0;orthogonalLoop=1;jettySize=auto;html=1;" edge="1" parent="WIyWlLk6GJQsqaUBKTNV-1" source="tE5iF9iHkF5uxFzn7pAU-23" target="tE5iF9iHkF5uxFzn7pAU-24">
          <mxGeometry relative="1" as="geometry" />
        </mxCell>
        <mxCell id="tE5iF9iHkF5uxFzn7pAU-28" style="edgeStyle=orthogonalEdgeStyle;rounded=0;orthogonalLoop=1;jettySize=auto;html=1;entryX=1.013;entryY=0.38;entryDx=0;entryDy=0;entryPerimeter=0;" edge="1" parent="WIyWlLk6GJQsqaUBKTNV-1" target="tE5iF9iHkF5uxFzn7pAU-16">
          <mxGeometry relative="1" as="geometry">
            <mxPoint x="710" y="230" as="targetPoint" />
            <mxPoint x="631.5" y="321" as="sourcePoint" />
            <Array as="points">
              <mxPoint x="632" y="320" />
              <mxPoint x="680" y="320" />
              <mxPoint x="680" y="239" />
            </Array>
          </mxGeometry>
        </mxCell>
        <mxCell id="tE5iF9iHkF5uxFzn7pAU-23" value="str[i] &amp;lt;= 3" style="rhombus;whiteSpace=wrap;html=1;" vertex="1" parent="WIyWlLk6GJQsqaUBKTNV-1">
          <mxGeometry x="500" y="290" width="150" height="62" as="geometry" />
        </mxCell>
        <mxCell id="tE5iF9iHkF5uxFzn7pAU-30" style="edgeStyle=orthogonalEdgeStyle;rounded=0;orthogonalLoop=1;jettySize=auto;html=1;entryX=0;entryY=0.75;entryDx=0;entryDy=0;" edge="1" parent="WIyWlLk6GJQsqaUBKTNV-1" source="tE5iF9iHkF5uxFzn7pAU-24" target="tE5iF9iHkF5uxFzn7pAU-16">
          <mxGeometry relative="1" as="geometry">
            <mxPoint x="490" y="270" as="targetPoint" />
            <Array as="points">
              <mxPoint x="470" y="414" />
              <mxPoint x="470" y="256" />
            </Array>
          </mxGeometry>
        </mxCell>
        <mxCell id="tE5iF9iHkF5uxFzn7pAU-24" value="second_arr[count] = str[i]&lt;br&gt;count ++" style="rounded=0;whiteSpace=wrap;html=1;" vertex="1" parent="WIyWlLk6GJQsqaUBKTNV-1">
          <mxGeometry x="490" y="390" width="170" height="47" as="geometry" />
        </mxCell>
        <mxCell id="tE5iF9iHkF5uxFzn7pAU-26" value="Да" style="text;html=1;align=center;verticalAlign=middle;resizable=0;points=[];autosize=1;strokeColor=none;fillColor=none;" vertex="1" parent="WIyWlLk6GJQsqaUBKTNV-1">
          <mxGeometry x="580" y="352" width="40" height="30" as="geometry" />
        </mxCell>
        <mxCell id="tE5iF9iHkF5uxFzn7pAU-27" value="Нет" style="text;html=1;align=center;verticalAlign=middle;resizable=0;points=[];autosize=1;strokeColor=none;fillColor=none;" vertex="1" parent="WIyWlLk6GJQsqaUBKTNV-1">
          <mxGeometry x="640" y="275" width="40" height="30" as="geometry" />
        </mxCell>
        <mxCell id="tE5iF9iHkF5uxFzn7pAU-38" value="" style="edgeStyle=orthogonalEdgeStyle;rounded=0;orthogonalLoop=1;jettySize=auto;html=1;" edge="1" parent="WIyWlLk6GJQsqaUBKTNV-1" source="tE5iF9iHkF5uxFzn7pAU-31" target="tE5iF9iHkF5uxFzn7pAU-37">
          <mxGeometry relative="1" as="geometry" />
        </mxCell>
        <mxCell id="tE5iF9iHkF5uxFzn7pAU-31" value="Вывод second_arr" style="shape=document;whiteSpace=wrap;html=1;boundedLbl=1;" vertex="1" parent="WIyWlLk6GJQsqaUBKTNV-1">
          <mxGeometry x="700" y="215" width="120" height="55" as="geometry" />
        </mxCell>
        <mxCell id="tE5iF9iHkF5uxFzn7pAU-35" value="конец" style="rounded=1;whiteSpace=wrap;html=1;" vertex="1" parent="WIyWlLk6GJQsqaUBKTNV-1">
          <mxGeometry x="315" y="396.75" width="120" height="33.5" as="geometry" />
        </mxCell>
        <mxCell id="tE5iF9iHkF5uxFzn7pAU-37" value="конец" style="rounded=1;whiteSpace=wrap;html=1;" vertex="1" parent="WIyWlLk6GJQsqaUBKTNV-1">
          <mxGeometry x="700" y="304.25" width="120" height="33.5" as="geometry" />
        </mxCell>
      </root>
    </mxGraphModel>
  </diagram>
</mxfile>
